<svg width="19" height="21" viewBox="0 0 19 21" fill="none" xmlns="http://www.w3.org/2000/svg">
<path d="M15.0021 6.7C15.0021 5.18827 14.4015 3.73845 13.3326 2.66949C12.2636 1.60053 10.8138 1 9.30208 1C7.79035 1 6.34053 1.60053 5.27157 2.66949C4.20261 3.73845 3.60208 5.18827 3.60208 6.7C3.60208 9.63568 2.86153 11.6457 2.03426 12.9751C1.33645 14.0966 0.987546 14.6573 1.00034 14.8137C1.01451 14.9869 1.0512 15.053 1.19077 15.1565C1.31682 15.25 1.88504 15.25 3.02149 15.25H15.5827C16.7191 15.25 17.2873 15.25 17.4134 15.1565C17.553 15.053 17.5897 14.9869 17.6038 14.8137C17.6166 14.6573 17.2677 14.0966 16.5699 12.9751C15.7426 11.6457 15.0021 9.63568 15.0021 6.7Z" fill="#E30613"/>
<path d="M6.78855 19.05C7.45842 19.6412 8.33836 20 9.30208 20C10.2658 20 11.1457 19.6412 11.8156 19.05M15.0021 6.7C15.0021 5.18827 14.4015 3.73845 13.3326 2.66949C12.2636 1.60053 10.8138 1 9.30208 1C7.79035 1 6.34053 1.60053 5.27157 2.66949C4.20261 3.73845 3.60208 5.18827 3.60208 6.7C3.60208 9.63568 2.86153 11.6457 2.03426 12.9751C1.33645 14.0966 0.987546 14.6573 1.00034 14.8137C1.01451 14.9869 1.0512 15.053 1.19077 15.1565C1.31682 15.25 1.88504 15.25 3.02149 15.25H15.5827C16.7191 15.25 17.2873 15.25 17.4134 15.1565C17.553 15.053 17.5897 14.9869 17.6038 14.8137C17.6166 14.6573 17.2677 14.0966 16.5699 12.9751C15.7426 11.6457 15.0021 9.63568 15.0021 6.7Z" stroke="#E30613" stroke-width="2" stroke-linecap="round" stroke-linejoin="round"/>
</svg>
